<svg xmlns="http://www.w3.org/2000/svg" width="626.5" height="201.5" viewBox="0 0 626.5 201.5">
  <g id="Group_65" data-name="Group 65" transform="translate(-257.5 -124.5)">
    <g id="Group_61" data-name="Group 61" transform="translate(260 128)">
      <g id="Group_60" data-name="Group 60" transform="translate(15 14)">
        <g id="floor_cumprido" opacity="0.998">
          <g id="Floor" transform="translate(0 0)">
            <g id="Rectangle_69" data-name="Rectangle 69" transform="translate(6 13)" fill="#20082f" stroke="#20082f" stroke-linejoin="round" stroke-width="5">
              <rect width="592.5" height="166" stroke="none"/>
              <rect x="-2.5" y="-2.5" width="597.5" height="171" fill="none"/>
            </g>
            <path id="solo_Rosa" d="M0,0H606.5V10H0Z" transform="translate(0 0)" fill="#20082f" stroke="#20082f" stroke-linejoin="round" stroke-width="5"/>
          </g>
        </g>
      </g>
      <g id="Group_57" data-name="Group 57">
        <g id="floor_cumprido-2" data-name="floor_cumprido" opacity="0.998">
          <g id="Floor-2" data-name="Floor">
            <g id="Rectangle_69-2" data-name="Rectangle 69" transform="translate(6 13)" fill="#4e166d" stroke="#4e166d" stroke-linejoin="round" stroke-width="5">
              <rect width="592.5" height="170" stroke="none"/>
              <rect x="-2.5" y="-2.5" width="597.5" height="175" fill="none"/>
            </g>
            <g id="saqures" transform="translate(41 32)">
              <path id="Path_76" data-name="Path 76" d="M4,0H48a4,4,0,0,1,4,4V48a4,4,0,0,1-4,4H4a4,4,0,0,1-4-4V4A4,4,0,0,1,4,0Z" transform="translate(3 3)" fill="#310c44" stroke="#310c44" stroke-width="1"/>
              <rect id="Rectangle_95" data-name="Rectangle 95" width="52" height="52" rx="4" fill="#391352" stroke="#381251" stroke-linejoin="round" stroke-width="1"/>
            </g>
            <g id="saqures-2" data-name="saqures" transform="translate(461.5 71)">
              <path id="Path_76-2" data-name="Path 76" d="M4,0H48a4,4,0,0,1,4,4V48a4,4,0,0,1-4,4H4a4,4,0,0,1-4-4V4A4,4,0,0,1,4,0Z" transform="translate(3 3)" fill="#310c44" stroke="#310c44" stroke-width="1"/>
              <path id="Path_90" data-name="Path 90" d="M4,0H48a4,4,0,0,1,4,4V48a4,4,0,0,1-4,4H4a4,4,0,0,1-4-4V4A4,4,0,0,1,4,0Z" fill="#391352" stroke="#391352" stroke-width="1"/>
            </g>
            <g id="saqures-3" data-name="saqures" transform="translate(361.328 35)">
              <path id="Path_76-3" data-name="Path 76" d="M4,0H48a4,4,0,0,1,4,4V48a4,4,0,0,1-4,4H4a4,4,0,0,1-4-4V4A4,4,0,0,1,4,0Z" transform="translate(3 3)" fill="#310c44" stroke="#310c44" stroke-width="1"/>
              <rect id="Rectangle_95-2" data-name="Rectangle 95" width="52" height="52" rx="4" fill="#4a1b69" stroke="#4a1b69" stroke-linejoin="round" stroke-width="1"/>
              <rect id="Rectangle_113" data-name="Rectangle 113" width="52" height="52" rx="4" fill="#3a1453" stroke="#3a1453" stroke-linejoin="round" stroke-width="1"/>
            </g>
            <g id="sombra_pequena" transform="translate(6 17)">
              <g id="sombra_pequena-2" data-name="sombra_pequena" fill="#310e48" stroke="#310e48" stroke-linejoin="round" stroke-width="5" opacity="0.452" style="mix-blend-mode: multiply;isolation: isolate">
                <rect width="592.5" height="5" stroke="none"/>
                <rect x="-2.5" y="-2.5" width="597.5" height="10" fill="none"/>
              </g>
            </g>
            <path id="solo_Rosa-2" data-name="solo_Rosa" d="M0,0H606.5V12H0Z" transform="translate(0)" fill="#a219ce" stroke="#a219ce" stroke-linejoin="round" stroke-width="5"/>
            <g id="Circuit6" transform="translate(71 65)">
              <path id="Path_34" data-name="Path 34" d="M-1080.412,739.285h93.423V719.161l23.8-23.784H-880.2" transform="translate(1084.228 -687.552)" fill="none" stroke="#6ef0fc" stroke-width="2"/>
              <path id="Path_35" data-name="Path 35" d="M-1011.294,728.019h88.882l26.742,26.725h230.075" transform="translate(1108.083 -676.286)" fill="none" stroke="#6ef0fc" stroke-width="2"/>
              <g id="Ellipse_25" data-name="Ellipse 25" transform="translate(438 74)" fill="#6ef0fc" stroke="#6ef0fc" stroke-width="2">
                <circle cx="4" cy="4" r="4" stroke="none"/>
                <circle cx="4" cy="4" r="3" fill="none"/>
              </g>
              <g id="Ellipse_26" data-name="Ellipse 26" transform="translate(0 48)" fill="#6ef0fc" stroke="#6ef0fc" stroke-width="2">
                <circle cx="4" cy="4" r="4" stroke="none"/>
                <circle cx="4" cy="4" r="3" fill="none"/>
              </g>
              <g id="Ellipse_14" data-name="Ellipse 14" transform="translate(202)" fill="none" stroke="#6ef0fc" stroke-width="2">
                <circle cx="8" cy="8" r="8" stroke="none"/>
                <circle cx="8" cy="8" r="7" fill="none"/>
              </g>
            </g>
            <g id="Circuito4" transform="translate(398.5 35)">
              <path id="Path_36" data-name="Path 36" d="M-1266.445,757.7l66.147-64.428h57.03l19.866-19.509" transform="translate(1270.174 -669.774)" fill="none" stroke="#6ef0fc" stroke-width="2"/>
              <g id="Ellipse_23" data-name="Ellipse 23" transform="translate(143)" fill="#6ef0fc" stroke="#6ef0fc" stroke-width="2">
                <circle cx="4" cy="4" r="4" stroke="none"/>
                <circle cx="4" cy="4" r="3" fill="none"/>
              </g>
              <g id="Ellipse_24" data-name="Ellipse 24" transform="translate(0 84)" fill="#6ef0fc" stroke="#6ef0fc" stroke-width="2">
                <circle cx="4" cy="4" r="4" stroke="none"/>
                <circle cx="4" cy="4" r="3" fill="none"/>
              </g>
            </g>
            <path id="sombra" d="M0,0H597.3V84H0Z" transform="translate(3.5 101.5)" fill="#5c2581" stroke="#5c2581" stroke-linejoin="round" stroke-width="5" opacity="0.428" style="mix-blend-mode: multiply;isolation: isolate"/>
            <path id="sombra-2" data-name="sombra" d="M0,0H47.9V6H0Z" transform="translate(463.6 90.5)" fill="#5c2581" stroke="#5c2581" stroke-width="5" opacity="0.428" style="mix-blend-mode: multiply;isolation: isolate"/>
          </g>
        </g>
      </g>
    </g>
    <path id="Subtraction_6" data-name="Subtraction 6" d="M606.5,1H0V0H606.5V1Z" transform="translate(260 127)" fill="#c536f2" stroke="#c536f2" stroke-linejoin="round" stroke-width="5"/>
    <path id="Subtraction_5" data-name="Subtraction 5" d="M608.5,0H0V1.5H608.5V0Z" transform="translate(258.5 128)" fill="#c536f2" stroke="#c536f2" stroke-width="2"/>
  </g>
</svg>
