<svg xmlns="http://www.w3.org/2000/svg" viewBox="0 0 55 55"><defs><style>.cls-1{fill:#ffd707;}.cls-2{fill:#fff;}</style></defs><g id="Layer_2" data-name="Layer 2"><g id="Layer_1-2" data-name="Layer 1"><path d="M52.79,53.43c-.77.07-1.5.16-2.24.18-.23,0-.45-.22-.69-.24-.61-.07-1.23-.09-1.84-.12s-1.34,0-2,0H44.27c-.35,0-.7,0-1,0-.73,0-1.45.11-2.17.14-.42,0-.84,0-1.25,0s-.85.12-1.27.16l-1.17.09-6,.3c-.75,0-1.5,0-2.26.05a6.81,6.81,0,0,0-.86.16,3.79,3.79,0,0,1-.82.07c-.95-.06-1.87.18-2.81.2l-2.91,0c-1.78,0-3.56,0-5.35.09s-3.64.15-5.46.26c-.56,0-1.11.24-1.67.28A7.28,7.28,0,0,1,8,54.9c-.3,0-.6,0-.89,0s-.8-.05-1.2-.05-.52.09-.78.08a4.22,4.22,0,0,1-.77-.16c-.21-.06-.42-.18-.55.15a.22.22,0,0,1-.19.09,2,2,0,0,1-.44-.28s0-.15,0-.16c.4-.16.29-.58.29-.85,0-1.19-.09-2.39-.14-3.59,0-.55,0-1.11-.08-1.67C3.13,47.6,3.05,46.79,3,46s-.06-1.62-.09-2.43c-.05-1-.14-2-.14-2.95,0-1.32.08-2.64.1-4,0-1.08,0-2.16,0-3.23,0-1.32.09-2.64.11-4,0-1,0-2,0-3,0-.81-.07-1.63-.09-2.44,0-1.19,0-2.39,0-3.58,0-.71.17-1.41.2-2.12a8.34,8.34,0,0,0,0-2.06c-.28-1.39.15-2.72.15-4.08,0-.84,0-1.68-.06-2.53S3,7.71,3,6.77c0-.3.11-.6.12-.9,0-1.13,0-2.26,0-3.4,0-.4.55-.84,1-.89S5.38,1.38,6,1.34a9.55,9.55,0,0,1,1.3.08c.56,0,1.12.06,1.68.07,1.43,0,2.87.05,4.3.05s3,0,4.57,0c1,0,2-.23,3-.32.5-.06,1-.06,1.51-.09A36.5,36.5,0,0,1,26.72.86,72.84,72.84,0,0,0,35.83.65c.86-.06,1.72,0,2.57,0C39.57.58,40.74.46,41.91.39s2.63-.14,4-.18c.9,0,1.8,0,2.69,0S50.22.05,51.05,0c.4,0,.81,0,1.21,0l1.93,0c.26,0,.31.12.26.4a6.3,6.3,0,0,0,0,2.41,9.41,9.41,0,0,1,.15,1.5c0,1,0,2,.06,3s.22,2.07.31,3.11c0,.45,0,.91,0,1.37s.1,1.08.08,1.61c0,.84-.14,1.67-.18,2.51,0,1.2,0,2.4-.07,3.6s-.1,2.49-.13,3.73c0,.56.07,1.13.06,1.7,0,1.39-.06,2.79-.1,4.19,0,.79-.1,1.58-.09,2.37s.11,1.46.12,2.18c0,.5-.11,1-.11,1.49,0,.7.11,1.4.12,2.1s0,1.47-.07,2.2c0,1.06-.08,2.11-.1,3.17s0,2.07,0,3.1c0,.4.08.8.11,1.2a10.79,10.79,0,0,1,.13,1.6c0,.87-.21,1.73-.28,2.6s-.1,1.86-.15,2.78a1.12,1.12,0,0,1-.12.35.09.09,0,0,1-.11,0,.16.16,0,0,1-.1-.11c0-.5-.28-.65-.68-.69Zm.77-52.12h0L53.52.88l-.41.28s-.08,0-.11,0S52.7,1,52.56,1c-1.1.09-2.2.24-3.3.29-1.53.07-3.06.06-4.59.11-.78,0-1.56.09-2.34.11-.62,0-1.24,0-1.86,0l-2.31.05c-.1,0-.19.11-.28.16l-.06.05a.33.33,0,0,1-.1-.06c-.08-.05-.16-.14-.23-.14-.68,0-1.35.07-2,.12s-1.53.13-2.3.17S31.73,1.94,31,2s-1.72,0-2.59,0c-.29,0-.58-.14-.87-.15s-.59.08-.88.09c-.54,0-1.08,0-1.62,0-.18,0-.52-.23-.56.24,0,0-.08,0-.11,0S24,1.94,23.86,2c-1,.1-2,.28-2.95.34s-2.16,0-3.24,0c-1.41,0-2.82.08-4.23.1s-3,0-4.57,0c-.7,0-1.39.12-2.09.12s-1.54-.07-2.31-.09a1.1,1.1,0,0,0-.4.13c.27.19,0,.41,0,.62.07.5.09,1,.14,1.5,0,.06.12.1.18.15l.2.16s0,.06,0,.06L4.42,5,4.35,5a2.5,2.5,0,0,0-.2.64c0,.63,0,1.27,0,1.91,0,.94,0,1.88,0,2.81-.06,1.1-.21,2.19-.25,3.29s.08,2.38,0,3.57c-.07,1.45.38,2.9,0,4.37a6.71,6.71,0,0,0,.05,1.54c0,.48-.11,1-.13,1.44,0,.81,0,1.62,0,2.43s-.11,1.61-.14,2.42c0,1.31,0,2.62-.06,3.93s-.09,2.6-.12,3.89c0,1,0,1.89,0,2.84,0,.67.14,1.33.17,2,.07,1.25.11,2.5.17,3.75,0,.23.11.45.12.68s-.08.45-.08.68c0,.56.06,1.11.08,1.66,0,.94,0,1.89.08,2.83,0,.47.13,1,.11,1.42s.2.48.5.44c.08,0,.16-.09.24-.1.57-.05,1.14-.14,1.72-.14,1.72,0,3.44,0,5.16,0,.46,0,.91-.13,1.36-.13,1.39,0,2.79.1,4.18.06,1.7,0,3.4-.23,5.1-.31,1.47-.07,2.94,0,4.41-.12,1.15-.06,2.29-.22,3.43-.31s2.12-.16,3.17-.2,1.93,0,2.9,0c2.45-.11,4.91-.26,7.36-.4.06,0,.11-.06.16-.1s.14-.18.21-.18c.53,0,1.06.07,1.6.12a5.49,5.49,0,0,0,.7.05c.16,0,.3-.2.45-.2,1.09,0,2.19,0,3.28.05a1.58,1.58,0,0,1,.31,0,3,3,0,0,0,.79.23c.83,0,1.65-.16,2.48-.25,0,0,.09-.1.09-.14-.05-.6-.14-1.19-.17-1.79s0-1.25,0-1.87-.18-1.06-.16-1.58c0-1.6.15-3.19.2-4.78,0-.71,0-1.43,0-2.15,0-1.58-.07-3.16,0-4.75s.18-3.16.24-4.75c.05-1.32.07-2.63.05-3.95,0-2.07-.11-4.13-.13-6.2,0-1.71,0-3.42,0-5.13,0-1.15,0-2.3,0-3.45,0-.6,0-1.21-.05-1.81-.06-.83-.22-1.66-.23-2.49s.08-1.9.1-2.85S53.56,2.18,53.56,1.31Zm.74,36.38c0,.11.07.28.11.45l.06.06s0,0,0,0c0-.38,0-.76,0-1.14,0,0-.05-.06-.08-.09s-.07.06-.07.09C54.32,37.22,54.31,37.42,54.3,37.69ZM54,.24,53.7.4,54,.58a1.84,1.84,0,0,0,.09-.25S54.05.27,54,.24Zm-4.21.83.41,0c-.13,0-.26,0-.39,0a2.85,2.85,0,0,0-.41,0ZM54.35,39l.08.19A.36.36,0,0,0,54.5,39a1.59,1.59,0,0,0-.07-.2Zm.06-2.86-.08-.29c0,.1,0,.2,0,.3s0,.07,0,.11Z"/><path d="M.29,4l-.22.13S0,4,0,3.94a.22.22,0,0,1,.13-.1S.21,3.9.29,4Z"/><path class="cls-1" d="M53.56,1.31c0,.87,0,1.75,0,2.62s-.12,1.9-.1,2.85.17,1.66.23,2.49c.05.6.05,1.21.05,1.81,0,1.15,0,2.3,0,3.45,0,1.71-.07,3.42,0,5.13,0,2.07.1,4.13.13,6.2,0,1.32,0,2.63-.05,3.95-.06,1.59-.2,3.17-.24,4.75s0,3.17,0,4.75c0,.72,0,1.44,0,2.15-.05,1.59-.16,3.18-.2,4.78,0,.52.14,1,.16,1.58s0,1.25,0,1.87.12,1.19.17,1.79c0,0-.06.14-.09.14-.83.09-1.65.2-2.48.25a3,3,0,0,1-.79-.23,1.58,1.58,0,0,0-.31,0c-1.09,0-2.19-.05-3.28-.05-.15,0-.29.19-.45.2a5.49,5.49,0,0,1-.7-.05c-.54,0-1.07-.1-1.6-.12-.07,0-.14.12-.21.18s-.1.1-.16.1c-2.45.14-4.91.29-7.36.4-1,0-1.93,0-2.9,0s-2.11.12-3.17.2-2.28.25-3.43.31c-1.47.07-2.94,0-4.41.12-1.7.08-3.4.26-5.1.31-1.39,0-2.79,0-4.18-.06-.45,0-.9.13-1.36.13-1.72,0-3.44,0-5.16,0-.58,0-1.15.09-1.72.14-.08,0-.16.09-.24.1-.3,0-.52,0-.5-.44S4,52.16,4,51.69c0-.94,0-1.89-.08-2.83,0-.55-.07-1.1-.08-1.66,0-.23.09-.46.08-.68s-.1-.45-.12-.68c-.06-1.25-.1-2.5-.17-3.75,0-.67-.15-1.33-.17-2,0-1,0-1.89,0-2.84,0-1.29.09-2.59.12-3.89s0-2.62.06-3.93c0-.81.11-1.61.14-2.42s0-1.62,0-2.43c0-.48.12-1,.13-1.44a6.71,6.71,0,0,1-.05-1.54c.4-1.47,0-2.92,0-4.37.05-1.19-.06-2.38,0-3.57s.19-2.19.25-3.29c0-.93,0-1.87,0-2.81,0-.64,0-1.28,0-1.91A2.5,2.5,0,0,1,4.35,5l.07,0,.19.06s0,0,0-.06l-.2-.16c-.06,0-.17-.09-.18-.15,0-.5-.07-1-.14-1.5,0-.21.24-.43,0-.62a1.1,1.1,0,0,1,.4-.13c.77,0,1.54.1,2.31.09s1.39-.11,2.09-.12c1.53,0,3.05,0,4.57,0s2.82-.08,4.23-.1c1.08,0,2.16,0,3.24,0s2-.24,2.95-.34c.16,0,.34.12.52.18s.11,0,.11,0c0-.47.38-.22.56-.24.54,0,1.08,0,1.62,0,.29,0,.59-.1.88-.09s.58.14.87.15c.87,0,1.73,0,2.59,0s1.44,0,2.15-.07,1.54-.12,2.3-.17,1.35-.09,2-.12c.07,0,.15.09.23.14a.33.33,0,0,0,.1.06l.06-.05c.09-.05.18-.15.28-.16l2.31-.05c.62,0,1.24,0,1.86,0,.78,0,1.56-.09,2.34-.11,1.53,0,3.06,0,4.59-.11,1.1-.05,2.2-.2,3.3-.29.14,0,.29.1.44.14s.08,0,.11,0l.41-.28.07.43ZM35.7,33.74c.81,0,1.33-.35,1.25-1.14a6.44,6.44,0,0,1,0-1.07c0-.09.06-.24,0-.27a.86.86,0,0,0-.33-.11l-.48,0a4.17,4.17,0,0,0-1.33-.2,6.58,6.58,0,0,1-2.69-.27,22,22,0,0,1-2.48-.85,3.1,3.1,0,0,1-1-.46c-.65-.56-1.23-1.2-1.84-1.81a6.82,6.82,0,0,1-.91-.87,13.82,13.82,0,0,1-.76-1.37c-.27-.48-.57-1-.85-1.44-.09-.15-.14-.33-.22-.5S24,23.13,24,23a.23.23,0,0,0-.13,0c-.16.1-.32.27-.5.29-.4.07-.83,0-1.22.11s-.78.32-.78.51a6.89,6.89,0,0,0,.25,1.73,1.64,1.64,0,0,0,.37.58c.1.1.25.15.35.26a3.58,3.58,0,0,1,.31.45c.25.4.47.81.75,1.18a9.22,9.22,0,0,0,.92,1.05c.15.15.4.21.53.38a11.42,11.42,0,0,0,3.92,2.89s0,0,.06,0c.47.12.95.23,1.42.38s.63.3,1,.37c.52.11,1.06.14,1.6.21C33.82,33.61,34.82,34.07,35.7,33.74ZM33.44,17.05h0l.12-.92,0,0,.21.11c0-.12.1-.26.06-.35s-.25-.3-.34-.47-.17-.63-.6-.57L31.3,15c-.47.05-.94.14-1.41.16s-.85,0-1.28,0c-.21,0-.34.06-.26.35a4.93,4.93,0,0,1,.23,1.13c0,.61-.09,1.23-.09,1.85,0,1.45,0,2.9,0,4.35,0,.08.11.22.18.23a4.66,4.66,0,0,0,1,.1c.57,0,1.13-.2,1.7-.2s1.26.13,1.89.18a.28.28,0,0,0,.23-.19c0-.74-.06-1.49-.06-2.23C33.43,19.5,33.44,18.27,33.44,17.05Zm5.37-2.71v-.05a7.2,7.2,0,0,1-1.13.29c-.44.05-.54.18-.21.54a.25.25,0,0,1,0,.13c0,.7.08,1.4,0,2.1-.06,1-.2,1.91-.29,2.87a5.57,5.57,0,0,0,.06.91c.05.44.08.88.17,1.3,0,.23.16.56.32.61a3,3,0,0,0,1.08.1c.31,0,.62-.18.94-.18.54,0,1.08.09,1.62.1.12,0,.25-.15.35-.26s.37-.51,0-.74c0,0,0-.08,0-.11,0-.72.06-1.44,0-2.15,0-1-.11-2-.1-3,0-.77.15-1.54.22-2.32a.28.28,0,0,0-.15-.23,2.2,2.2,0,0,0-.62-.08C40.36,14.23,39.59,14.29,38.81,14.34ZM28.1,10.56l0-.06c-.07.06-.16.1-.2.17a.24.24,0,0,0,.06.2c.22.15.45.28.68.41l1.49.85c.66.37,1.36.69,2,1.11s1.28,1,2,1.51a1.94,1.94,0,0,0,.85.1,2.05,2.05,0,0,0,0-.7c-.14-.31-.43-.54-.25-.93,0,0,0-.08-.09-.1a7.46,7.46,0,0,1-.82-.5c-.27-.22-.48-.53-.75-.76-.08-.08-.28,0-.37-.08s-.38-.38-.58-.55c-.74-.63-1.48-1.27-2.24-1.86a.69.69,0,0,0-.64,0,2.9,2.9,0,0,0-.57.63ZM43.32,8.22c.06-.55-.36-.8-.75-1.05a2.61,2.61,0,0,0-.78-.29.69.69,0,0,0-.45,0c-.13.07-.2.28-.32.37L39.48,8.33l-.7.52a8.6,8.6,0,0,0-.8.67,7.08,7.08,0,0,0-.6.81s0,.1,0,.14a8.67,8.67,0,0,0,.6.89.35.35,0,0,0,.37.05c.89-.52,1.75-1.09,2.64-1.61.39-.23.81-.4,1.21-.6.21-.11.43-.36.62-.32C43.4,9,43.34,8.63,43.32,8.22ZM28,23.09a.62.62,0,0,0-.18-.07s-.08,0-.11.06l.1.06A1.06,1.06,0,0,0,28,23.09Z"/><path d="M54.3,37.69c0-.27,0-.47,0-.67,0,0,0-.06.07-.09s.07.06.08.09c0,.38,0,.76,0,1.14,0,0,0,0,0,0l-.06-.06C54.37,38,54.33,37.8,54.3,37.69Z"/><path class="cls-2" d="M54,.24s.1.07.1.09A1.84,1.84,0,0,1,54,.58L53.7.4Z"/><path class="cls-2" d="M49.8,1.07h-.39a2.85,2.85,0,0,1,.41,0c.13,0,.26,0,.39,0Z"/><path d="M54.35,39l.08-.18a1.59,1.59,0,0,1,.07.2.36.36,0,0,1-.07.17Z"/><path d="M54.41,36.09l0,.12s0-.08,0-.11,0-.2,0-.3Z"/><path d="M35.7,33.74c-.88.33-1.88-.13-2.91-.27-.54-.07-1.08-.1-1.6-.21-.34-.07-.64-.27-1-.37s-.95-.26-1.42-.38c0,0,0,0-.06,0a11.42,11.42,0,0,1-3.92-2.89c-.13-.17-.38-.23-.53-.38a9.22,9.22,0,0,1-.92-1.05c-.28-.37-.5-.78-.75-1.18a3.58,3.58,0,0,0-.31-.45c-.1-.11-.25-.16-.35-.26a1.64,1.64,0,0,1-.37-.58A6.89,6.89,0,0,1,21.34,24c0-.19.48-.44.78-.51s.82,0,1.22-.11c.18,0,.34-.19.5-.29A.23.23,0,0,1,24,23c.06.1.11.21.16.31s.13.35.22.5c.28.49.58,1,.85,1.44A13.82,13.82,0,0,0,26,26.65a6.82,6.82,0,0,0,.91.87c.61.61,1.19,1.25,1.84,1.81a3.1,3.1,0,0,0,1,.46,22,22,0,0,0,2.48.85,6.58,6.58,0,0,0,2.69.27,4.17,4.17,0,0,1,1.33.2l.48,0a.86.86,0,0,1,.33.11s0,.18,0,.27a6.44,6.44,0,0,0,0,1.07C37,33.39,36.51,33.7,35.7,33.74Z"/><path d="M33.44,17.05c0,1.22,0,2.45,0,3.68,0,.74,0,1.49.06,2.23a.28.28,0,0,1-.23.19c-.63,0-1.26-.18-1.89-.18s-1.13.16-1.7.2a4.66,4.66,0,0,1-1-.1c-.07,0-.17-.15-.18-.23,0-1.45-.05-2.9,0-4.35,0-.62.1-1.24.09-1.85a4.93,4.93,0,0,0-.23-1.13c-.08-.29,0-.35.26-.35.43,0,.86,0,1.28,0s.94-.11,1.41-.16l1.6-.19c.43-.06.46.3.6.57s.26.3.34.47,0,.23-.06.35l-.21-.11,0,0-.12.92Z"/><path d="M38.81,14.34c.78-.05,1.55-.11,2.33-.15a2.2,2.2,0,0,1,.62.08.28.28,0,0,1,.15.23c-.07.78-.2,1.55-.22,2.32,0,1,.08,2,.1,3,0,.71,0,1.43,0,2.15,0,0,0,.1,0,.11.39.23.26.49,0,.74s-.23.27-.35.26c-.54,0-1.08-.1-1.62-.1-.32,0-.63.16-.94.18a3,3,0,0,1-1.08-.1c-.16-.05-.27-.38-.32-.61-.09-.42-.12-.86-.17-1.3a5.57,5.57,0,0,1-.06-.91c.09-1,.23-1.91.29-2.87,0-.7,0-1.4,0-2.1a.25.25,0,0,0,0-.13c-.33-.36-.23-.49.21-.54a7.2,7.2,0,0,0,1.13-.29Z"/><path d="M28.1,10.56l.48-.54a2.9,2.9,0,0,1,.57-.63.69.69,0,0,1,.64,0c.76.59,1.5,1.23,2.24,1.86.2.17.37.39.58.55s.29,0,.37.08c.27.23.48.54.75.76a7.46,7.46,0,0,0,.82.5s.1.08.09.1c-.18.39.11.62.25.93a2.05,2.05,0,0,1,0,.7,1.94,1.94,0,0,1-.85-.1c-.68-.46-1.28-1.05-2-1.51s-1.33-.74-2-1.11l-1.49-.85c-.23-.13-.46-.26-.68-.41a.24.24,0,0,1-.06-.2c0-.07.13-.11.2-.17Z"/><path d="M43.32,8.22c0,.41.08.76-.47.66-.19,0-.41.21-.62.32-.4.2-.82.37-1.21.6-.89.52-1.75,1.09-2.64,1.61a.35.35,0,0,1-.37-.05,8.67,8.67,0,0,1-.6-.89s0-.12,0-.14a7.08,7.08,0,0,1,.6-.81,8.6,8.6,0,0,1,.8-.67l.7-.52L41,7.27c.12-.09.19-.3.32-.37a.69.69,0,0,1,.45,0,2.61,2.61,0,0,1,.78.29C43,7.42,43.38,7.67,43.32,8.22Z"/><path class="cls-1" d="M28,23.09a1.06,1.06,0,0,1-.19.05l-.1-.06s.07-.06.11-.06A.62.62,0,0,1,28,23.09Z"/></g></g></svg>