<svg xmlns="http://www.w3.org/2000/svg" viewBox="0 0 55 55"><defs><style>.cls-1{fill:#ffd707;}</style></defs><g id="Layer_2" data-name="Layer 2"><g id="Layer_1-2" data-name="Layer 1"><path d="M15.6,54.55c-.12,0-.29.07-.3-.12-.16,0,0,.09-.12,0a3.19,3.19,0,0,0-.31-.33s0,0,0,0c-.36-.23-.24-.59-.24-.92s0-.43,0-.65h0c.11-1,.24-2,.33-3,.05-.55.05-1.11.07-1.67a16,16,0,0,1,.27-2.39c.18-1,.29-2,.48-3.06.1-.58.29-1.16.43-1.74.09-.37.17-.75.25-1.13.22-1.07.43-2.14.69-3.2.17-.71.41-1.39.6-2.09.12-.44.22-.88.31-1.33s.07-.6.12-.9a1.54,1.54,0,0,1,.15-.32.26.26,0,0,0-.13-.4c-.44-.2-.88-.42-1.34-.59a5.13,5.13,0,0,0-.95-.26,9.69,9.69,0,0,1-2.33-.84c-.55-.24-1.12-.42-1.69-.61-.35-.12-.7-.23-1-.32a1.43,1.43,0,0,0-.29,0,.74.74,0,0,1-.26,0c-.3-.13-.6-.28-.89-.42a.57.57,0,0,1-.11-.11c-.13-.13-.24-.27-.37-.4-.28-.29-.56-.58-.85-.86a1.56,1.56,0,0,0-.28-.23,16.72,16.72,0,0,1-2-1.44c-.26-.2-.58-.31-.86-.49-.45-.29-.89-.59-1.33-.89L2.5,23c-.12-.08-.22-.18-.33-.26l-1-.72c-.26-.18-.56-.31-.67-.66,0-.05-.15-.05-.22-.07L0,21.2a1.34,1.34,0,0,1,.12-.3c.15-.18.31-.33.47-.49,0,0,0,0,0,0,.52-.09.91-.54,1.5-.54a8.2,8.2,0,0,0,1.69-.24,16.18,16.18,0,0,1,3.1-.28c1,0,1.95-.09,2.91-.17s1.84-.2,2.75-.29c.4,0,.8-.08,1.2-.08a13.59,13.59,0,0,0,2.76-.45,9.26,9.26,0,0,1,2.23-.13c.76,0,1.51,0,2.27,0a.59.59,0,0,0,.58-.42c.05-.13.23-.22.28-.36.31-.89.59-1.78.91-2.66.2-.57.47-1.12.69-1.69a3.06,3.06,0,0,0,.38-1.29,1.31,1.31,0,0,1,.11-.42c.57-1.5,1.2-3,1.69-4.51.26-.85.58-1.67.88-2.5C27,3.15,27.44,2,27.85.81a1.46,1.46,0,0,1,.43-.74.32.32,0,0,1,.2-.07c.05,0,.13.11.12.16-.07.32.18.48.31.71a6.72,6.72,0,0,1,.32.66c.13.28.24.58.35.86.28.67.55,1.34.82,2a3.07,3.07,0,0,0,.17.42,9.2,9.2,0,0,1,.59,1.77c.36,1.21.77,2.4,1.18,3.59.2.58.43,1.14.64,1.7,0,0,0,.08,0,.1a11.85,11.85,0,0,1,.95,2.3c.18.39.36.78.51,1.18s.29,1,.48,1.43a12.28,12.28,0,0,0,.74,1.5.54.54,0,0,0,.41.2c.33,0,.66,0,1,0s.59.12.89.16c.53.06,1.07.12,1.6.15.77,0,1.53,0,2.29.06a.88.88,0,0,1,.28.06c.11,0,.21.09.32.11a20.08,20.08,0,0,0,3,.51,25.49,25.49,0,0,1,3.47.52c1.21.22,2.43.4,3.65.6.36.06.72.13,1.07.21a1.21,1.21,0,0,1,.28.18s.07.08.11.11l.75.4a.34.34,0,0,1,0,.6c-.33.2-.68.39-1,.58-.51.29-1,.59-1.53.87l-1.72.94c-.59.32-1.17.65-1.76,1-.36.21-.72.41-1.07.64-.82.53-1.62,1.08-2.43,1.6-.65.42-1.32.82-2,1.21-.9.54-1.82,1.05-2.71,1.6a17,17,0,0,0-1.4,1,5.25,5.25,0,0,0-.66.59.36.36,0,0,0-.08.27c.07.8.14,1.61.23,2.41.06.5.16,1,.23,1.51s.09,1,.17,1.55c.14.9.31,1.79.45,2.68.1.64.18,1.28.28,1.92s.23,1.58.35,2.36a2.43,2.43,0,0,0,0,.4c.08.27.18.52.27.78a5.36,5.36,0,0,1,.12,1.55c0,.35.1.7.15,1.05a2.47,2.47,0,0,0,.06.29c.07.21.16.41.22.62a2,2,0,0,1,.13.57,6.92,6.92,0,0,0,.32,1.69c.06.22.18.45,0,.67-.05.05,0,.19,0,.28a1.33,1.33,0,0,1-.05.9,2.84,2.84,0,0,0-.51.86c0,.12-.27.2-.42.27a.72.72,0,0,1-1-.26,5.9,5.9,0,0,0-1.21-1A5,5,0,0,1,37,52.41c-.43-.58-.84-1.16-1.26-1.75a3.43,3.43,0,0,0-.86-.84,9,9,0,0,1-1.08-1c-.41-.39-.83-.78-1.22-1.2a2.56,2.56,0,0,1-.58-.78,9.52,9.52,0,0,0-.92-1.65c-.37-.57-.71-1.17-1.09-1.73-.15-.22-.4-.38-.56-.59-.31-.39-.58-.81-.87-1.21l-1.25-1.79c-.14-.19-.21-.19-.37,0l-.51.62s-.08.08-.08.13c-.08.57-.54.9-.84,1.32-.57.79-1.22,1.52-1.82,2.28-.23.3-.41.65-.61,1a1.37,1.37,0,0,1-.13.2,10.78,10.78,0,0,0-.88.91c-.45.54-.87,1.11-1.3,1.66a3.34,3.34,0,0,1-.35.4,6.66,6.66,0,0,0-1.19,1.55c-.05.08-.1.17-.17.2-.4.18-.59.57-.86.88a16.41,16.41,0,0,0-1.53,2.33,8,8,0,0,1-.66.87M16.31,51c0,.32.05.38.38.35A.47.47,0,0,0,17,51.2c.19-.2.36-.43.55-.65.67-.77,1.35-1.53,2-2.32.46-.56.88-1.15,1.31-1.73.22-.29.42-.59.64-.88.93-1.25,1.87-2.5,2.79-3.75a3.68,3.68,0,0,0,.26-.57.52.52,0,0,1,.12-.17,2,2,0,0,0,.73-.75.29.29,0,0,1,.11-.11,4.75,4.75,0,0,0,.38-.4,4,4,0,0,1,.61-.83,8.25,8.25,0,0,0,.67-.65.35.35,0,0,1,.29-.11c.09,0,.16.16.22.26a3.24,3.24,0,0,0,.19.37c.17.22.36.43.54.65l1.25,1.51c.41.49.65,1.13,1.23,1.47,0,0,0,0,0,.07A1.79,1.79,0,0,0,31,43a5.91,5.91,0,0,1,.47.68,5.39,5.39,0,0,0,.74,1.19c.51.64,1,1.31,1.47,2,.11.14.25.27.36.42s.34.56.55.81A10.53,10.53,0,0,0,36.43,50c.09.06.13.19.19.28a5.76,5.76,0,0,0,.46.71c.19.22.43.39.64.59l2.08,2c.13.13.22.1.25-.07a2.49,2.49,0,0,0,.07-.53c-.06-.71-.13-1.41-.2-2.12s-.15-1.48-.22-2.21c-.05-.45-.07-.9-.15-1.33s-.22-.61-.27-.93c-.17-1.1-.32-2.2-.48-3.29-.06-.42-.15-.83-.2-1.25-.17-1.4-.31-2.8-.49-4.2-.07-.57-.22-1.14-.3-1.71a19.13,19.13,0,0,1-.44-2.71A10.78,10.78,0,0,0,37.25,32c0-.38.07-.52.43-.59a1,1,0,0,0,.4-.17c.92-.74,2-1.25,2.91-2a21.45,21.45,0,0,1,2.24-1.39c.91-.53,1.85-1,2.78-1.53.64-.34,1.31-.65,2-1,.48-.27.92-.63,1.41-.89.69-.37,1.4-.67,2.1-1l.3-.16,2-1.05L54,22,53.81,22c-.57-.14-1.14-.23-1.7-.41a9,9,0,0,0-2.47-.32c-.33,0-.67-.07-1-.11s-.43-.06-.65-.07a5.24,5.24,0,0,1-2.24-.38,2.82,2.82,0,0,0-.77-.2c-.27,0-.55,0-.81-.1A15.3,15.3,0,0,0,41.31,20c-.5,0-1,0-1.51,0s-1.09-.08-1.64-.09-1.37,0-2,0a.85.85,0,0,1-.42-.17c-.23-.18-.32-.18-.41.1-.2.66-.4,1.32-.59,2a.61.61,0,0,1-.43.49.48.48,0,0,1-.59-.28c0-.07-.2-.16-.26-.13-.24.11-.23-.08-.27-.2-.15-.4-.29-.81-.45-1.21-.06-.15,0-.24.11-.23a.29.29,0,0,0,.29-.17,2.94,2.94,0,0,0,.65-1.38c0-.09.14-.23.2-.22.21,0,.28-.13.32-.26s-.07-.2-.12-.29a16.84,16.84,0,0,1-1.09-1.82,11,11,0,0,1-.5-1.75A18.31,18.31,0,0,0,32,12.55a8.13,8.13,0,0,0-.62-1.64,3.73,3.73,0,0,1-.29-1c-.13-.38-.27-.77-.42-1.15-.27-.67-.56-1.33-.82-2-.16-.41-.3-.84-.43-1.27-.18-.58-.35-1.18-.53-1.77-.1-.31-.19-.63-.3-.94a3.29,3.29,0,0,0-.26-.49c0-.08-.09-.14-.13-.21a1.3,1.3,0,0,0-.15.2c-.26.73-.52,1.46-.77,2.2s-.46,1.49-.7,2.23c-.31.92-.64,1.84-.94,2.77a1.59,1.59,0,0,0-.15.94.42.42,0,0,1-.07.25,4.09,4.09,0,0,0-.37,1.5,2.56,2.56,0,0,1,0,.56,5,5,0,0,1-.37,1,7.69,7.69,0,0,0-.78,2.15,3.51,3.51,0,0,1-.26.6,1.38,1.38,0,0,0-.08.27.74.74,0,0,1,.21,0,.67.67,0,0,1,.18.07.42.42,0,0,1-.11.15c-.11.06-.22.11-.19.27,0,0-.12.07-.13,0-.27-.25-.3,0-.37.18a5.12,5.12,0,0,1-.25.65,1.6,1.6,0,0,1-.22.31,1.52,1.52,0,0,1-.22.22c-.11.08-.28.11-.36.22a1.1,1.1,0,0,1-.91.35c-.85,0-1.7.11-2.56.1-1.17,0-2.34.11-3.51.18-.8.05-1.6.09-2.39.17s-1.43.18-2.15.25c-.48.06-1,.08-1.45.12-.8.06-1.6.09-2.39.2-1,.12-1.9.32-2.85.47A5.66,5.66,0,0,1,2.07,21a.58.58,0,0,0-.23,0c-.06,0-.15.07-.16.11s.05.13.1.17a7.4,7.4,0,0,0,1.41,1c.76.37,1.37,1,2.11,1.41.93.53,1.78,1.19,2.67,1.78a9.52,9.52,0,0,0,1.56.92c1.13.46,2.3.81,3.45,1.22.59.22,1.17.45,1.75.69.33.13.63.31,1,.41a4.51,4.51,0,0,1,1.89.86.84.84,0,0,0,.19.09l1.43.64c.08,0,.19.13.19.19s.11.23.21.33a.37.37,0,0,1,.08.29c0,.2-.14.38-.17.58s-.07.69-.13,1-.17.76-.27,1.14-.23.92-.36,1.38-.27.89-.38,1.34-.1.72-.17,1.07-.22.88-.32,1.33a7.55,7.55,0,0,0-.17.95c0,.19.1.39.07.56a6.21,6.21,0,0,1-.31,1.71,2,2,0,0,0-.17.59c-.16,1-.33,2-.46,3s-.23,2-.33,3C16.44,49.51,16.38,50.24,16.31,51Zm-.49-21.91-.05,0a.12.12,0,0,0,.05,0l.39.12v0l-.36-.14Z"/><path class="cls-1" d="M23.53,16.73c0-.09,0-.19.08-.27a2.91,2.91,0,0,0,.27-.6,7.84,7.84,0,0,1,.77-2.16,4.72,4.72,0,0,0,.38-1,3.38,3.38,0,0,0,0-.56,3.9,3.9,0,0,1,.37-1.5.42.42,0,0,0,.07-.25,1.61,1.61,0,0,1,.14-1c.31-.92.64-1.84.95-2.76.24-.74.45-1.49.7-2.23s.51-1.47.77-2.2a.72.72,0,0,1,.14-.2,1.53,1.53,0,0,1,.14.21,4.59,4.59,0,0,1,.26.49c.11.31.2.63.3.94.17.59.34,1.18.53,1.77.13.43.26.86.42,1.27.27.67.56,1.34.82,2a12.19,12.19,0,0,1,.42,1.15,4.16,4.16,0,0,0,.3,1A8.52,8.52,0,0,1,32,12.52a18.28,18.28,0,0,1,.51,1.83A11,11,0,0,0,33,16.1a19.79,19.79,0,0,0,1.08,1.82c.06.09.15.21.13.29s-.12.28-.32.26-.19.13-.2.22a3,3,0,0,1-.65,1.38c-.08.11-.14.18-.29.17s-.17.08-.11.23c.16.4.3.8.45,1.21,0,.12,0,.31.26.2a.29.29,0,0,1,.27.13.48.48,0,0,0,.59.28c.24-.05.35-.25.42-.49l.6-2c.09-.28.18-.29.41-.1a.7.7,0,0,0,.41.16c.69,0,1.37,0,2.06,0s1.09.07,1.64.09,1,0,1.51,0a15.4,15.4,0,0,1,2.86.34c.26.07.54.05.8.1a2.89,2.89,0,0,1,.78.2A5.37,5.37,0,0,0,48,21c.22,0,.43,0,.64.07s.67.1,1,.11a9,9,0,0,1,2.47.32c.55.18,1.13.27,1.7.41L54,22a1.33,1.33,0,0,1-.19.14l-2,1.05-.3.16c-.7.33-1.41.64-2.1,1-.49.26-.93.63-1.42.9s-1.3.67-1.94,1c-.94.5-1.87,1-2.79,1.53A21.31,21.31,0,0,0,41,29.19c-.94.72-2,1.23-2.91,2a1,1,0,0,1-.41.17c-.36.06-.47.21-.42.59a10.37,10.37,0,0,1,.12,1.25,20.24,20.24,0,0,0,.43,2.7c.09.58.24,1.15.31,1.72.18,1.4.32,2.8.49,4.2.05.41.14.83.2,1.24.16,1.1.3,2.2.48,3.3.05.32.21.61.27.93s.1.88.14,1.32c.08.74.16,1.48.23,2.22s.14,1.41.19,2.12a2,2,0,0,1-.06.53c0,.17-.12.2-.26.07-.69-.67-1.38-1.34-2.08-2-.2-.2-.44-.37-.63-.59a7.28,7.28,0,0,1-.47-.71c-.06-.09-.1-.22-.18-.28A10.85,10.85,0,0,1,34.59,48c-.21-.25-.37-.55-.56-.81s-.24-.28-.35-.42c-.49-.66-1-1.32-1.47-2a5.39,5.39,0,0,1-.74-1.19,5.91,5.91,0,0,0-.47-.68,1.3,1.3,0,0,1-.11-.35s0-.06,0-.07c-.57-.34-.81-1-1.22-1.47l-1.25-1.51-.55-.65c-.08-.11-.11-.26-.18-.37s-.13-.23-.22-.26a.34.34,0,0,0-.29.1,7.1,7.1,0,0,1-.68.66,4.45,4.45,0,0,0-.61.83,4.64,4.64,0,0,1-.38.39s-.08.07-.11.11a1.82,1.82,0,0,1-.72.76.52.52,0,0,0-.12.17,3.2,3.2,0,0,1-.26.56l-2.79,3.76c-.22.29-.42.59-.64.88-.43.58-.85,1.17-1.31,1.73-.66.79-1.35,1.55-2,2.32-.18.22-.35.45-.54.65a.47.47,0,0,1-.3.14c-.32,0-.38,0-.37-.35.07-.75.12-1.48.2-2.2.1-1,.2-2,.33-3s.3-2,.46-3a2,2,0,0,1,.17-.59,5.85,5.85,0,0,0,.3-1.71c0-.18-.07-.38-.06-.56a7.53,7.53,0,0,1,.16-1c.1-.45.23-.89.33-1.33s.09-.72.17-1.07.26-.89.38-1.34.24-.92.36-1.38.2-.76.27-1.14.07-.7.13-1,.13-.39.17-.58a.37.37,0,0,0-.08-.29c-.11-.1-.23-.15-.21-.33s-.11-.16-.19-.19l-1.44-.64a.64.64,0,0,1-.18-.1,4.62,4.62,0,0,0-1.89-.85c-.33-.1-.64-.28-1-.41-.58-.24-1.16-.48-1.75-.69-1.15-.41-2.32-.76-3.46-1.22A9,9,0,0,1,8,25.48c-.9-.59-1.75-1.25-2.67-1.78-.74-.42-1.36-1-2.12-1.41a7.33,7.33,0,0,1-1.4-1c-.05,0-.11-.12-.1-.17s.1-.09.16-.11a.58.58,0,0,1,.23,0,5.56,5.56,0,0,0,1.81-.27c1-.15,1.9-.35,2.86-.48.79-.1,1.59-.13,2.38-.19.49,0,1-.06,1.46-.12.71-.07,1.43-.19,2.14-.25s1.6-.12,2.4-.17c1.17-.07,2.34-.2,3.51-.18.85,0,1.7-.06,2.56-.1a1.1,1.1,0,0,0,.91-.35c.08-.11.24-.14.36-.22a1.52,1.52,0,0,0,.22-.22,1.4,1.4,0,0,0,.22-.32,4.47,4.47,0,0,0,.25-.64m-1.33,11s-.07.32-.11.3-.6.21-.71.36-.12-.5-.1-.46c.11.21-.05.32-.16.41a.34.34,0,0,0-.11.4,1.55,1.55,0,0,1,.07.23m.1.6a.32.32,0,0,1,.08.21,5.3,5.3,0,0,0,0,.57A4.06,4.06,0,0,1,21,32.9a1.12,1.12,0,0,0,.24,1c.13.17.21.39.35.56a3.87,3.87,0,0,0,.53.54,4.94,4.94,0,0,0,.49.3,6.52,6.52,0,0,0,.87.53c.46.19.94.3,1.39.51a6.18,6.18,0,0,1,1.63.94,1.31,1.31,0,0,0,.39.2.27.27,0,0,0,.36-.11.29.29,0,0,1,.26-.07c.46.08.92.18,1.38.27a3.46,3.46,0,0,1,.65.18,2.42,2.42,0,0,0,1.3.19,1.15,1.15,0,0,1,.26,0c.37,0,.45,0,.48-.42a.85.85,0,0,1,.23-.55.37.37,0,0,0,0-.55.59.59,0,0,1-.12-.2c-.08-.24-.13-.49-.22-.73a.34.34,0,0,0-.52-.19.51.51,0,0,1-.32,0c-.22,0-.43-.14-.65-.2a.71.71,0,0,0-.32,0c-.36.07-.72.17-1.07.25l0-.06a5.47,5.47,0,0,1-2-.47c-.34-.13-.64-.38-1-.54-.56-.25-.86-.82-1.37-1.13a.42.42,0,0,1-.11-.15c-.14-.3-.26-.61-.42-.89a2.88,2.88,0,0,1-.57-1.4c0-.05,0-.1,0-.15-.08-.32-.28-.68-.2-.95.12-.43,0-.56-.34-.67a3,3,0,0,0-.49-.14c-.1,0-.21,0-.31,0l-.18-.05m5.26-4.36-2.13.28c-.19,0-.21.17-.22.34a3.59,3.59,0,0,1-.05.46,2.11,2.11,0,0,0,0,.26c0,.08,0,.16,0,.23a6.37,6.37,0,0,0,0,2.22,9.42,9.42,0,0,1,.06,1.18,2.06,2.06,0,0,0,0,.82c.07.18.37.37.13.44s.24-.07-.07.13c.06.05-.13.22-.05.25s.21.06.1.21,0,.21.13.23a2.9,2.9,0,0,0,1.52.07.33.33,0,0,1,.24,0c.25.09.48.23.72.29a7.56,7.56,0,0,0,1.16.18c.23,0,.3-.11.26-.34a.67.67,0,0,1,0-.28c0-.1.08-.2.1-.3a15.21,15.21,0,0,0,.25-2.86c0-.41.09-.82.14-1.23s.24-.93-.06-1.38c-.07-.12-.06-.29.16-.3,0,0,.11-.07.11-.11s0-.16-.07-.18a6.23,6.23,0,0,0-.73-.24c-.29-.07-.59-.08-.88-.14S27,24.46,26.77,24.37Zm9.37.66h0c0-.23,0-.46-.07-.69a.58.58,0,0,0-.78-.39,1.43,1.43,0,0,1-.78.11A4.2,4.2,0,0,0,32.44,24a.88.88,0,0,1-.28,0c-.23,0-.38,0-.39.28,0,.52-.05,1.05-.05,1.57s0,1.15.08,1.72a2.83,2.83,0,0,0,.1.93,1.66,1.66,0,0,1,0,1.1,2.26,2.26,0,0,0,.24,1.53.27.27,0,0,0,.24.12,3.73,3.73,0,0,0,.75,0,2.81,2.81,0,0,1,1.19-.08l1,.2c.07,0,.14,0,.21,0a1,1,0,0,1,.3,0c.33.09.44,0,.39-.32-.13-.91,0-1.83,0-2.74,0-.33,0-.66,0-1s0-.55,0-.83,0-.48,0-.72S36.16,25.25,36.14,25Zm-12.58-5.8a.77.77,0,0,0,.57.58.72.72,0,0,1,.37.21c.21.25.37.56.6.8a9,9,0,0,1,1,1.35,1.43,1.43,0,0,0,.6.57,1.12,1.12,0,0,1,.61.6c.06.1.08.23.16.31a.41.41,0,0,0,.3.13c.29,0,.29-.05.3.26s.07.29.21.23a1.45,1.45,0,0,0,.44-.35,1.77,1.77,0,0,0,.24-.4.7.7,0,0,0,.08-.2c.06-.3.1-.61.17-.92,0-.08-.2-.21-.14-.29s-.11.37,0,.16a.15.15,0,0,0,0-.16s.22-.26.15-.25,0-.11,0-.08,0-.3-.12-.45c-.23-.34-.46-.69-.71-1s-.54-.66-.8-1a3.67,3.67,0,0,0-.47-.56,6.14,6.14,0,0,0-1.33-1,.22.22,0,0,1-.11-.14c0-.28-.13-.45-.44-.27a.13.13,0,0,1-.1,0c-.16-.08-.26,0-.35.14s-.32.46-.49.68l-.66.92A.39.39,0,0,0,23.56,19.23ZM20.17,30.76l.36-.12-.27-.15h0a.44.44,0,0,0-.2,0s-.05.11,0,.13A.65.65,0,0,0,20.17,30.76Z"/><path d="M15.8,29.05h0l.36.13,0,0-.39-.12,0-.05Z"/><path d="M21.51,28.73l.18.05c.1,0,.21,0,.31,0a3,3,0,0,1,.49.14c.3.11.46.24.34.67-.08.27.12.63.2.95,0,.05,0,.1,0,.15a2.88,2.88,0,0,0,.57,1.4c.16.28.28.59.42.89a.42.42,0,0,0,.11.15c.51.31.81.88,1.37,1.13.34.16.64.41,1,.54a5.47,5.47,0,0,0,2,.47l0,.06c.35-.08.71-.18,1.07-.25a.71.71,0,0,1,.32,0c.22.06.43.15.65.2a.51.51,0,0,0,.32,0,.34.34,0,0,1,.52.19c.09.24.14.49.22.73a.59.59,0,0,0,.12.2.37.37,0,0,1,0,.55.85.85,0,0,0-.23.55c0,.4-.11.45-.48.42a1.15,1.15,0,0,0-.26,0,2.42,2.42,0,0,1-1.3-.19,3.46,3.46,0,0,0-.65-.18c-.46-.09-.92-.19-1.38-.27a.29.29,0,0,0-.26.07.27.27,0,0,1-.36.11,1.31,1.31,0,0,1-.39-.2,6.18,6.18,0,0,0-1.63-.94c-.45-.21-.93-.32-1.39-.51a6.52,6.52,0,0,1-.87-.53,4.94,4.94,0,0,1-.49-.3,3.87,3.87,0,0,1-.53-.54c-.14-.17-.22-.39-.35-.56a1.12,1.12,0,0,1-.24-1,4.06,4.06,0,0,0-.09-1.8,5.3,5.3,0,0,1,0-.57c0-.07,0-.07,0-.14s-.05,0-.07-.14,0-.11,0-.15a.21.21,0,0,0,0-.08.77.77,0,0,0,0-.3,1.55,1.55,0,0,0-.07-.23.34.34,0,0,1,.11-.4,1.32,1.32,0,0,0,.14-.13s.12,0,.15-.09a.42.42,0,0,1,.5-.14c-.33.42-.35,0-.37,0"/><path d="M26.77,24.37c.27.09.54.18.81.25s.59.07.88.14a6.23,6.23,0,0,1,.73.24s.07.12.07.18-.07.1-.11.11c-.22,0-.23.18-.16.3.3.45.11.92.06,1.38s-.13.82-.14,1.23a15.21,15.21,0,0,1-.25,2.86c0,.1-.08.2-.1.3a.67.67,0,0,0,0,.28c0,.23,0,.36-.26.34a7.56,7.56,0,0,1-1.16-.18c-.24-.06-.47-.2-.72-.29a.33.33,0,0,0-.24,0,2.9,2.9,0,0,1-1.52-.07c-.11,0-.22-.09-.13-.23a2.28,2.28,0,0,0-.1-.21c0-.08,0-.06,0-.17a.94.94,0,0,0,.05-.3c0-.3,0-.17,0-.35a2.06,2.06,0,0,1,0-.82,9.42,9.42,0,0,0-.06-1.18,6.37,6.37,0,0,1,0-2.22c0-.07,0-.15,0-.23a2.11,2.11,0,0,1,0-.26,3.59,3.59,0,0,0,.05-.46c0-.17,0-.31.22-.34Zm1.11,7.17-.13.05a1,1,0,0,0,.15.07s.08,0,.12,0Z"/><path d="M36.14,25c0,.22.06.44.07.66s0,.48,0,.72,0,.56,0,.83-.06.66,0,1c.06.91-.09,1.83,0,2.74,0,.35-.06.41-.39.32a1,1,0,0,0-.3,0c-.07,0-.14,0-.21,0l-1-.2a2.81,2.81,0,0,0-1.19.08,3.73,3.73,0,0,1-.75,0,.27.27,0,0,1-.24-.12,2.26,2.26,0,0,1-.24-1.53,1.66,1.66,0,0,0,0-1.1,2.83,2.83,0,0,1-.1-.93c0-.57-.07-1.14-.08-1.72s0-1.05.05-1.57c0-.24.16-.33.39-.28a.88.88,0,0,0,.28,0,4.2,4.2,0,0,1,2.11.08,1.43,1.43,0,0,0,.78-.11.58.58,0,0,1,.78.39c0,.23,0,.46.07.69Z"/><path d="M29.38,22.17a.69.69,0,0,0-.16.23c-.07.31-.11.62-.17.92a.7.7,0,0,1-.08.2,1.77,1.77,0,0,1-.24.4,1.45,1.45,0,0,1-.44.35c-.14.06-.21-.07-.21-.23s0-.3-.3-.26a.41.41,0,0,1-.3-.13c-.08-.08-.1-.21-.16-.31a1.12,1.12,0,0,0-.61-.6,1.43,1.43,0,0,1-.6-.57,9,9,0,0,0-1-1.35c-.23-.24-.39-.55-.6-.8a.72.72,0,0,0-.37-.21.77.77,0,0,1-.57-.58.39.39,0,0,1,.06-.14l.66-.92c.17-.22.33-.45.49-.68s.19-.22.35-.14a.13.13,0,0,0,.1,0c.31-.18.4,0,.44.27a.22.22,0,0,0,.11.14,6.14,6.14,0,0,1,1.33,1,3.67,3.67,0,0,1,.47.56c.26.32.54.65.8,1s.48.68.71,1M26.5,18.65l.05-.07-.23-.16,0,0Z"/><path class="cls-1" d="M20.17,30.76a.65.65,0,0,1-.16-.13s0-.12,0-.13a.44.44,0,0,1,.2,0h0l.27.15Z"/><path d="M27.88,31.54l.14.08s-.08.05-.12,0a1,1,0,0,1-.15-.07Z"/><path d="M26.5,18.65l-.22-.19,0,0,.23.16Z"/></g></g></svg>