<svg xmlns="http://www.w3.org/2000/svg" viewBox="0 0 60 55"><defs><style>.cls-1{fill:#ffd707;}</style></defs><g id="Layer_2" data-name="Layer 2"><g id="Layer_1-2" data-name="Layer 1"><path d="M59.72,53.6l-.79.29a3.88,3.88,0,0,1-.79.27,15,15,0,0,0-2,.21,29.84,29.84,0,0,1-3.89.22c-1.18.13-2.36.17-3.54.2-.42,0-.84-.13-1.26-.13-1.19,0-2.38.09-3.57.11-1.38,0-2.76,0-4.14,0-1.75,0-3.5,0-5.26,0-.76,0-1.52.19-2.27.17-1.84-.06-3.68-.2-5.51-.3-.31,0-.61,0-.92,0-1.58.07-3.16.17-4.75.19a19.52,19.52,0,0,1-2-.22c-.57,0-1.14,0-1.71,0-2,0-4-.09-5.95-.12a30.88,30.88,0,0,0-3.47,0,5.79,5.79,0,0,1-1.44.1l-2.11-.27a.41.41,0,0,0-.22,0,1.66,1.66,0,0,1-1.27.24c-.66-.11-1.36.21-2-.19a1.24,1.24,0,0,0-.4-.08.52.52,0,0,1-.41-.6c0-.07,0-.15,0-.21-.18-.49.16-.78.35-1.14a9.26,9.26,0,0,0,.48-1.17,1.68,1.68,0,0,1,.17-.46,9.79,9.79,0,0,0,1.34-2.41c.32-.69.71-1.36,1.06-2,.43-.85.86-1.71,1.28-2.57.61-1.23,1.27-2.43,1.8-3.7S7.81,37.34,8.46,36c.77-1.62,1.65-3.19,2.5-4.77.39-.71.83-1.39,1.25-2.09.16-.27.3-.56.47-.83.37-.6.74-1.21,1.13-1.8.56-.88,1.15-1.75,1.72-2.63s1.13-1.75,1.71-2.61c.21-.32.5-.6.71-.92.34-.55.67-1.11,1-1.68s.51-1.08.77-1.62a9.69,9.69,0,0,1,.57-1.11c.19-.29.5-.5.68-.81s.43-.93.67-1.39.57-1,.83-1.44.53-1.06.8-1.58.7-1.31,1-2c.23-.44.43-.9.65-1.35.68-1.35,1.35-2.7,2-4,.1-.2.28-.34.39-.53a4,4,0,0,0,.21-.47c.09-.17.16-.35.41-.32.05,0,.14-.13.18-.21A3.43,3.43,0,0,1,29.33.28a.57.57,0,0,0,.14-.13c.15-.19.26-.23.34.07a.62.62,0,0,0,.26.32,4.32,4.32,0,0,1,1.46,1.73,4.48,4.48,0,0,0,.35.6c.11.14.24.25.11.45,0,0,0,.1.06.14.54.79,1.11,1.56,1.62,2.37a16,16,0,0,1,.71,1.44c.17.31.37.6.55.91a3.71,3.71,0,0,1,.19.4,6.46,6.46,0,0,0,.27.6c.32.56.67,1.11,1,1.68.18.32.32.67.5,1s.45.76.66,1.14.47.89.72,1.33l1.24,2,.14.25c.3.42.61.82.88,1.25s.32.61.49.91c.49.91,1,1.82,1.5,2.71.4.71.82,1.39,1.24,2.09.09.14.21.25.3.39a2.66,2.66,0,0,1,.44.93c0,.25.27.46.42.7.51.84,1,1.68,1.54,2.53a4.7,4.7,0,0,1,.24.66,3.07,3.07,0,0,0,.24.48c.21.34.43.67.65,1,.77,1.22,1.59,2.41,2.29,3.67.54,1,.9,2,1.37,3.05.4.84.8,1.68,1.25,2.49s1,1.71,1.54,2.55a3.71,3.71,0,0,0,.49.56c.2.21.4.41.59.62,0,0,.08.1.08.14a7.14,7.14,0,0,0,.89,2.15c.31.77.67,1.52,1,2.28a.75.75,0,0,0,.06.13c.46.82.93,1.64,1.4,2.46.19.34.4.66.58,1a1.13,1.13,0,0,1,.1.37,3.54,3.54,0,0,0,.69,1.54.37.37,0,0,1,.06.28c0,.07-.16.09-.24.12ZM16.07,25.65c-.11.3-.24.66-.38,1a.64.64,0,0,1-.08.14c-.27.38-.53.77-.81,1.13s-.7.76-1,1.18-.71,1.09-1.05,1.65c-.48.78-1,1.55-1.41,2.35-.56,1-1.08,2.09-1.62,3.13-.05.11-.09.22-.14.32-.26.51-.53,1-.78,1.52-.18.35-.33.73-.51,1.09l-.64,1.28c-.2.41-.37.84-.57,1.25l-1.44,3c-.25.54-.48,1.09-.75,1.62-.19.37-.45.71-.62,1.09-.4.86-.77,1.75-1.16,2.61-.3.66-.61,1.32-.95,2-.19.35-.22.82-.63,1a.49.49,0,0,0,.05.19,4.88,4.88,0,0,0,1.43,0,5.57,5.57,0,0,1,3.33,0,4,4,0,0,0,1.6.18,7.3,7.3,0,0,1,.93-.08c.38,0,.76,0,1.14,0,1.07,0,2.15,0,3.22-.06A4.56,4.56,0,0,0,14,53a2.18,2.18,0,0,1,.56-.09c1.08,0,2.17.07,3.25.08.23,0,.46-.14.69-.15.65,0,1.31,0,2,0s1.33,0,2,.06l5.34.26a.82.82,0,0,1,.28.14,1.46,1.46,0,0,0,.35.18,3.77,3.77,0,0,0,.48,0c.53.06,1,.18,1.58.2,1.15,0,2.31.06,3.46.07a12.2,12.2,0,0,0,1.35-.06A14.28,14.28,0,0,1,37,53.47c1.16,0,2.33.17,3.49.24.9,0,1.79.08,2.69.06.47,0,.93-.21,1.39-.24.76,0,1.52,0,2.28,0,.93,0,1.85,0,2.77.06a30.38,30.38,0,0,0,3.3.16,1.24,1.24,0,0,0,.27,0c.52-.1,1-.24,1.54-.29.84-.08,1.68-.09,2.51-.16a4.49,4.49,0,0,0,.89-.16c.2,0,.37-.19.57-.24s.31-.17.15-.38c-.29-.38-.63-.72-.89-1.12-.39-.59-.7-1.23-1.08-1.82-.5-.79-1-1.55-1.54-2.31-.28-.4-.66-.73-.9-1.15-.57-1-1.09-2.06-1.63-3.09-.35-.7-.69-1.41-1-2.11-.45-.91-.89-1.83-1.36-2.74-.24-.46-.56-.87-.81-1.33s-.5-1-.76-1.58-.65-1.29-1-1.93-.65-1.29-1-1.92-.83-1.51-1.25-2.26c-.53-.91-1-1.83-1.6-2.73-.44-.73-.93-1.42-1.35-2.16s-.86-1.76-1.33-2.63-.9-1.37-1.24-2.12a20.85,20.85,0,0,0-1.35-2.29c-.45-.73-.86-1.49-1.27-2.24-.5-.94-1-1.9-1.5-2.84-.32-.58-.69-1.14-1-1.71-.19-.3-.4-.58-.58-.89l-.86-1.48c-.23-.37-.49-.72-.69-1.09-.3-.53-.54-1.09-.84-1.61-.13-.23-.38-.4-.5-.63-.43-.86-.83-1.72-1.24-2.59-.2-.42-.35-.44-.63-.07S29,3,28.7,3.45a21.76,21.76,0,0,0-1.24,2.46c-.33.65-.68,1.28-1,1.92s-.92,1.52-1.35,2.31c-.29.53-.51,1.1-.8,1.63s-.7,1.16-1,1.75-.8,1.41-1.17,2.14-.61,1.34-1,2c-.21.39-.15,1-.75,1.1a.22.22,0,0,0-.06.07c-.15.21-.3.42-.44.65-.66,1.09-1.29,2.2-2,3.28s-1.29,1.88-1.94,2.82a.59.59,0,0,0-.06.14.9.9,0,0,0,.16,0S16.1,25.63,16.07,25.65Z"/><path class="cls-1" d="M16.07,25.65s0,0,0,0a.9.9,0,0,1-.16,0,.59.59,0,0,1,.06-.14c.65-.94,1.32-1.86,1.94-2.82s1.32-2.19,2-3.28c.14-.23.29-.44.44-.65a.22.22,0,0,1,.06-.07c.6-.1.54-.71.75-1.1.35-.65.62-1.34,1-2s.77-1.44,1.17-2.14.71-1.15,1-1.75.51-1.1.8-1.63c.43-.79.91-1.54,1.35-2.31s.71-1.27,1-1.92A21.76,21.76,0,0,1,28.7,3.45c.32-.46.6-1,.94-1.39s.43-.35.63.07c.41.87.81,1.73,1.24,2.59.12.23.37.4.5.63.3.52.54,1.08.84,1.61.2.37.46.72.69,1.09l.86,1.48c.18.31.39.59.58.89.35.57.72,1.13,1,1.71.52.94,1,1.9,1.5,2.84.41.75.82,1.51,1.27,2.24a20.85,20.85,0,0,1,1.35,2.29c.34.75.85,1.4,1.24,2.12s.86,1.77,1.33,2.63.91,1.43,1.35,2.16c.55.9,1.07,1.82,1.6,2.73.42.75.84,1.5,1.25,2.26s.66,1.28,1,1.92.66,1.28,1,1.93.49,1.07.76,1.58.57.87.81,1.33c.47.91.91,1.83,1.36,2.74.35.7.69,1.41,1,2.11.54,1,1.06,2.08,1.63,3.09.24.42.62.75.9,1.15.53.76,1,1.52,1.54,2.31.38.59.69,1.23,1.08,1.82.26.4.6.74.89,1.12.16.21.09.31-.15.38s-.37.19-.57.24a4.49,4.49,0,0,1-.89.16c-.83.07-1.67.08-2.51.16-.51.05-1,.19-1.54.29a1.24,1.24,0,0,1-.27,0,30.38,30.38,0,0,1-3.3-.16c-.92-.07-1.84-.05-2.77-.06-.76,0-1.52,0-2.28,0-.46,0-.92.23-1.39.24-.9,0-1.79,0-2.69-.06-1.16-.07-2.33-.21-3.49-.24a14.28,14.28,0,0,0-1.71.22,12.2,12.2,0,0,1-1.35.06c-1.15,0-2.31,0-3.46-.07-.53,0-1.05-.14-1.58-.2a3.77,3.77,0,0,1-.48,0,1.46,1.46,0,0,1-.35-.18.82.82,0,0,0-.28-.14l-5.34-.26c-.66,0-1.32-.06-2-.06s-1.31,0-2,0c-.23,0-.46.16-.69.15-1.08,0-2.17-.06-3.25-.08A2.18,2.18,0,0,0,14,53a4.56,4.56,0,0,1-.81.2c-1.07,0-2.15.05-3.22.06-.38,0-.76,0-1.14,0a7.3,7.3,0,0,0-.93.08,4,4,0,0,1-1.6-.18,5.57,5.57,0,0,0-3.33,0,4.88,4.88,0,0,1-1.43,0A.49.49,0,0,1,1.53,53c.41-.21.44-.68.63-1,.34-.64.65-1.3.95-2,.39-.86.76-1.75,1.16-2.61.17-.38.43-.72.62-1.09.27-.53.5-1.08.75-1.62l1.44-3c.2-.41.37-.84.57-1.25l.64-1.28c.18-.36.33-.74.51-1.09.25-.51.52-1,.78-1.52.05-.1.09-.21.14-.32.54-1,1.06-2.1,1.62-3.13.44-.8.93-1.57,1.41-2.35.34-.56.67-1.12,1.05-1.65s.67-.78,1-1.18.54-.75.81-1.13a.64.64,0,0,0,.08-.14C15.83,26.31,16,26,16.07,25.65ZM33.24,39.33c-.08-.44-.14-.88-.25-1.31a1.06,1.06,0,0,0-.91-.86,3.36,3.36,0,0,1-1.36-.29c-.41-.2-.87-.33-1.28-.55s-.64-.48-1-.67a11.44,11.44,0,0,0-1.75-.79,5.9,5.9,0,0,1-1.63-.9c-.28-.2-.58-.38-.87-.57a2.12,2.12,0,0,1-.38-.26c-.27-.3-.52-.63-.78-.94s-.62-.67-.91-1a7.33,7.33,0,0,0-.6-.83.82.82,0,0,1-.26-1,.36.36,0,0,0-.07-.31.43.43,0,0,0-.33,0c-.14.09-.24.27-.39.32-.46.17-.93.3-1.4.43-.67.18-.72.57-.51,1.09a2.43,2.43,0,0,0,1,1.37c.06,0,.08.11.13.17.52.69.74,1.61,1.45,2.17l0,0a7.64,7.64,0,0,0,.82,1c.75.64,1.54,1.22,2.31,1.84.09.08.11.24.19.35a.67.67,0,0,0,.24.26c.12.07.3,0,.41.13a9.16,9.16,0,0,0,2.2,1.28c.35.13.74.36,1.05.28a1.58,1.58,0,0,1,1.19.21,1,1,0,0,0,.9.1c.07,0,.18,0,.26,0,.42.06.77.4,1.23.31.21,0,.45,0,.67,0S33.22,39.58,33.24,39.33Zm-4.41-7.56v-.05a1.83,1.83,0,0,0,.47,0c.34-.12.66-.27,1-.39a1.15,1.15,0,0,0,.62-1.12A4.42,4.42,0,0,1,31,28.8a5,5,0,0,0,.1-1.73L30.9,25a2.55,2.55,0,0,0-.09-.8,1,1,0,0,1-.07-.87.38.38,0,0,0-.06-.32,2.18,2.18,0,0,0-1.39-.44c-.59,0-1.19,0-1.79.09s-.94.1-1.4.14c-.06,0-.14-.1-.19-.16a2.11,2.11,0,0,1-.19-.23c-.07.08-.18.15-.2.23a9.23,9.23,0,0,0-.19,1.56,25.46,25.46,0,0,1,0,3.15c0,.09,0,.26.1.27.25.07.21.25.21.43,0,.84,0,1.68.07,2.51,0,.07.05.13.07.2s.11.36.15.54a.67.67,0,0,1,0,.2,1.27,1.27,0,0,1,.18-.06h.18c0,.29.15.21.29.2s.25,0,.37,0Zm7.76-.27a5.4,5.4,0,0,0,.57-.18,4.29,4.29,0,0,1,.51-.28c.57-.19.74-.48.55-1.06a.37.37,0,0,1,0-.14c0-.85-.07-1.69-.11-2.54,0-.37-.06-.74-.11-1.11s-.11-.48-.15-.73c-.11-.65-.21-1.3-.29-2-.06-.4-.06-.8-.1-1.2a3.1,3.1,0,0,0-.08-.42L37,22c-.13,0-.28.09-.39,0a1.69,1.69,0,0,0-1.4-.22.84.84,0,0,1-.58.05,1.75,1.75,0,0,0-1.87.5.52.52,0,0,0-.08.43,2.74,2.74,0,0,1,.4,1.42c0,.68,0,1.36,0,2a6.6,6.6,0,0,0,.27,2.3,2.25,2.25,0,0,1,.07.58c0,.29,0,.57,0,.86a2,2,0,0,1-.08.49c-.08.25,0,.36.22.4a1.15,1.15,0,0,1,.31.11c.32.15.6.42,1,.34a.36.36,0,0,1,.14,0Zm-5-11.12c-.1-.41-.18-.82-.52-1-.55-.3-.85-.92-1.51-1.09a5,5,0,0,1-1.18-.7.47.47,0,0,1-.09-.06,9.86,9.86,0,0,0-2.08-1.43,6.69,6.69,0,0,1-.87-.47c-.32-.17-.51-.09-.71.21a4.1,4.1,0,0,1-.53.64c-.4.39-.39.7,0,1,.14.12.27.26.4.39.39.4.75.83,1.17,1.19s1.16.91,1.75,1.37c.34.26.67.54,1,.77s.74.41,1.11.61a.37.37,0,0,0,.18,0,1.23,1.23,0,0,1,.9.43c.09.08.28.16.32.13a1.19,1.19,0,0,0,.27-.46c.05-.18-.07-.44.22-.5a.2.2,0,0,0,0-.11c-.26-.13-.14-.32-.08-.5S31.49,20.53,31.55,20.38Zm5.08-3.64c.42,0,.6-.12.56-.47a5.82,5.82,0,0,0-.33-1.13,1.28,1.28,0,0,0-.25-.4,5.1,5.1,0,0,1-.54-.62,1,1,0,0,0-.82-.6c-.17,0-.35.23-.53.36a.58.58,0,0,0-.12.1,6.55,6.55,0,0,0-.39.53c-.11.14-.18.33-.31.42-.44.32-.91.57-1.33.91-.14.1-.13.4-.19.61s0,.16-.08.18c-.28.11-.3.22-.14.48a7.16,7.16,0,0,0,.58,1,3.28,3.28,0,0,0,.77.53s0,0,.05,0A7.26,7.26,0,0,0,35,17.78c.44-.41,1-.6,1.44-1A.39.39,0,0,1,36.63,16.74Z"/><path d="M33.24,39.33c0,.25-.4,1-.61,1.09s-.46,0-.67,0c-.46.09-.81-.25-1.23-.31-.08,0-.19,0-.26,0a1,1,0,0,1-.9-.1,1.58,1.58,0,0,0-1.19-.21c-.31.08-.7-.15-1.05-.28a9.16,9.16,0,0,1-2.2-1.28c-.11-.09-.29-.06-.41-.13a.67.67,0,0,1-.24-.26c-.08-.11-.1-.27-.19-.35-.77-.62-1.56-1.2-2.31-1.84a7.64,7.64,0,0,1-.82-1l0,0c-.71-.56-.93-1.48-1.45-2.17-.05-.06-.07-.14-.13-.17a2.43,2.43,0,0,1-1-1.37c-.21-.52-.16-.91.51-1.09.47-.13.94-.26,1.4-.43.15-.05.25-.23.39-.32a.43.43,0,0,1,.33,0,.36.36,0,0,1,.07.31.82.82,0,0,0,.26,1,7.33,7.33,0,0,1,.6.83c.29.36.61.68.91,1s.51.64.78.94a2.12,2.12,0,0,0,.38.26c.29.19.59.37.87.57a5.9,5.9,0,0,0,1.63.9,11.44,11.44,0,0,1,1.75.79c.35.19.64.48,1,.67s.87.35,1.28.55a3.36,3.36,0,0,0,1.36.29A1.06,1.06,0,0,1,33,38C33.1,38.45,33.16,38.89,33.24,39.33Z"/><path d="M28.83,31.77,27,31.6c-.12,0-.25,0-.37,0s-.33.09-.29-.2h-.18a1.27,1.27,0,0,0-.18.06.67.67,0,0,0,0-.2c0-.18-.1-.36-.15-.54s-.07-.13-.07-.2c0-.83-.05-1.67-.07-2.51,0-.18,0-.36-.21-.43-.05,0-.11-.18-.1-.27a25.46,25.46,0,0,0,0-3.15,9.23,9.23,0,0,1,.19-1.56c0-.08.13-.15.2-.23a2.11,2.11,0,0,0,.19.23c.05.06.13.16.19.16.46,0,.93-.11,1.4-.14s1.2-.06,1.79-.09a2.18,2.18,0,0,1,1.39.44.38.38,0,0,1,.06.32,1,1,0,0,0,.07.87,2.55,2.55,0,0,1,.09.8l.18,2.11A5,5,0,0,1,31,28.8a4.42,4.42,0,0,0-.05,1.36,1.15,1.15,0,0,1-.62,1.12c-.34.12-.66.27-1,.39a1.83,1.83,0,0,1-.47,0Z"/><path d="M36.59,31.5,35,31.34a.36.36,0,0,0-.14,0c-.39.08-.67-.19-1-.34a1.15,1.15,0,0,0-.31-.11c-.24,0-.3-.15-.22-.4A2,2,0,0,0,33.4,30c0-.29,0-.57,0-.86a2.25,2.25,0,0,0-.07-.58,6.6,6.6,0,0,1-.27-2.3c0-.67,0-1.35,0-2a2.74,2.74,0,0,0-.4-1.42.52.52,0,0,1,.08-.43,1.75,1.75,0,0,1,1.87-.5.84.84,0,0,0,.58-.05,1.69,1.69,0,0,1,1.4.22c.11,0,.26,0,.39,0l.37-.11a3.1,3.1,0,0,1,.08.42c0,.4,0,.8.1,1.2.08.66.18,1.31.29,2,0,.25.12.48.15.73s.09.74.11,1.11c0,.85.07,1.69.11,2.54a.37.37,0,0,0,0,.14c.19.58,0,.87-.55,1.06a4.29,4.29,0,0,0-.51.28A5.4,5.4,0,0,1,36.59,31.5Z"/><path d="M31.55,20.38c-.06.15-.12.32-.18.49s-.18.37.08.5a.2.2,0,0,1,0,.11c-.29.06-.17.32-.22.5a1.19,1.19,0,0,1-.27.46s-.23-.05-.32-.13a1.23,1.23,0,0,0-.9-.43.37.37,0,0,1-.18,0c-.37-.2-.75-.38-1.11-.61s-.69-.51-1-.77c-.59-.46-1.19-.89-1.75-1.37s-.78-.79-1.17-1.19c-.13-.13-.26-.27-.4-.39-.43-.34-.44-.65,0-1a4.1,4.1,0,0,0,.53-.64c.2-.3.39-.38.71-.21a6.69,6.69,0,0,0,.87.47,9.86,9.86,0,0,1,2.08,1.43.47.47,0,0,0,.09.06,5,5,0,0,0,1.18.7c.66.17,1,.79,1.51,1.09C31.37,19.56,31.45,20,31.55,20.38Z"/><path d="M36.63,16.74a.39.39,0,0,0-.21.07c-.44.37-1,.56-1.44,1a7.26,7.26,0,0,1-1.42.86s0,0-.05,0a3.28,3.28,0,0,1-.77-.53,7.16,7.16,0,0,1-.58-1c-.16-.26-.14-.37.14-.48,0,0,.06-.12.08-.18s0-.51.19-.61c.42-.34.89-.59,1.33-.91.13-.09.2-.28.31-.42A6.55,6.55,0,0,1,34.6,14a.58.58,0,0,1,.12-.1c.18-.13.36-.37.53-.36a1,1,0,0,1,.82.6,5.1,5.1,0,0,0,.54.62,1.28,1.28,0,0,1,.25.4,5.82,5.82,0,0,1,.33,1.13C37.23,16.62,37.05,16.75,36.63,16.74Z"/></g></g></svg>