<svg xmlns="http://www.w3.org/2000/svg" width="853.5" height="201.5" viewBox="0 0 853.5 201.5">
  <g id="Group_72" data-name="Group 72" transform="translate(-257.5 -124.5)">
    <g id="Group_61" data-name="Group 61" transform="translate(260 128)">
      <g id="Group_60" data-name="Group 60" transform="translate(15 14)">
        <g id="floor_cumprido" transform="translate(0 0)" opacity="0.998">
          <g id="Floor">
            <g id="Rectangle_69" data-name="Rectangle 69" transform="translate(6 13)" fill="#20082f" stroke="#20082f" stroke-linejoin="round" stroke-width="5">
              <rect width="819.5" height="166" stroke="none"/>
              <rect x="-2.5" y="-2.5" width="824.5" height="171" fill="none"/>
            </g>
            <path id="solo_Rosa" d="M0,0H833.5V10H0Z" transform="translate(0 0)" fill="#20082f" stroke="#20082f" stroke-linejoin="round" stroke-width="5"/>
          </g>
        </g>
      </g>
      <g id="Group_57" data-name="Group 57" transform="translate(0)">
        <g id="floor_cumprido-2" data-name="floor_cumprido" opacity="0.998">
          <g id="Floor-2" data-name="Floor">
            <g id="Rectangle_69-2" data-name="Rectangle 69" transform="translate(6 13)" fill="#4e166d" stroke="#4e166d" stroke-linejoin="round" stroke-width="5">
              <rect width="819.5" height="170" stroke="none"/>
              <rect x="-2.5" y="-2.5" width="824.5" height="175" fill="none"/>
            </g>
            <g id="sombra_pequena" transform="translate(6 17)">
              <g id="sombra_pequena-2" data-name="sombra_pequena" fill="#310e48" stroke="#310e48" stroke-linejoin="round" stroke-width="5" opacity="0.452" style="mix-blend-mode: multiply;isolation: isolate">
                <rect width="819.5" height="5" stroke="none"/>
                <rect x="-2.5" y="-2.5" width="824.5" height="10" fill="none"/>
              </g>
            </g>
            <path id="solo_Rosa-2" data-name="solo_Rosa" d="M0,0H833.5V12H0Z" fill="#a219ce" stroke="#a219ce" stroke-linejoin="round" stroke-width="5"/>
            <path id="sombra" d="M0,0H824.3V84H0Z" transform="translate(3.5 101.5)" fill="#5c2581" stroke="#5c2581" stroke-linejoin="round" stroke-width="5" opacity="0.428" style="mix-blend-mode: multiply;isolation: isolate"/>
          </g>
        </g>
      </g>
    </g>
    <path id="Subtraction_6" data-name="Subtraction 6" d="M833.5,1H0V0H833.5V1Z" transform="translate(260 127)" fill="#c536f2" stroke="#c536f2" stroke-linejoin="round" stroke-width="5"/>
    <path id="Subtraction_5" data-name="Subtraction 5" d="M835.5,0H0V1.5H835.5V0Z" transform="translate(258.5 128)" fill="#c536f2" stroke="#c536f2" stroke-width="2"/>
  </g>
</svg>
