<svg xmlns="http://www.w3.org/2000/svg" width="626.5" height="217.536" viewBox="0 0 626.5 217.536">
  <g id="Group_73" data-name="Group 73" transform="translate(-281.5 -783.464)">
    <g id="Group_67" data-name="Group 67" transform="translate(24 675)">
      <g id="Group_61" data-name="Group 61" transform="translate(260 128)">
        <g id="Group_60" data-name="Group 60" transform="translate(15 14)">
          <g id="floor_cumprido" opacity="0.998">
            <g id="Floor" transform="translate(0 0)">
              <g id="Rectangle_69" data-name="Rectangle 69" transform="translate(6 13)" fill="#20082f" stroke="#20082f" stroke-linejoin="round" stroke-width="5">
                <rect width="592.5" height="166" stroke="none"/>
                <rect x="-2.5" y="-2.5" width="597.5" height="171" fill="none"/>
              </g>
              <path id="solo_Rosa" d="M0,0H606.5V10H0Z" transform="translate(0 0)" fill="#20082f" stroke="#20082f" stroke-linejoin="round" stroke-width="5"/>
            </g>
          </g>
        </g>
        <g id="Group_57" data-name="Group 57">
          <g id="floor_cumprido-2" data-name="floor_cumprido" opacity="0.998">
            <g id="Floor-2" data-name="Floor">
              <g id="Rectangle_69-2" data-name="Rectangle 69" transform="translate(6 13)" fill="#4e166d" stroke="#4e166d" stroke-linejoin="round" stroke-width="5">
                <rect width="592.5" height="170" stroke="none"/>
                <rect x="-2.5" y="-2.5" width="597.5" height="175" fill="none"/>
              </g>
              <g id="sombra_pequena" transform="translate(6 17)">
                <g id="sombra_pequena-2" data-name="sombra_pequena" fill="#310e48" stroke="#310e48" stroke-linejoin="round" stroke-width="5" opacity="0.452" style="mix-blend-mode: multiply;isolation: isolate">
                  <rect width="592.5" height="5" stroke="none"/>
                  <rect x="-2.5" y="-2.5" width="597.5" height="10" fill="none"/>
                </g>
              </g>
              <path id="solo_Rosa-2" data-name="solo_Rosa" d="M0,0H606.5V12H0Z" transform="translate(0)" fill="#a219ce" stroke="#a219ce" stroke-linejoin="round" stroke-width="5"/>
              <path id="sombra" d="M0,0H597.3V84H0Z" transform="translate(3.5 101.5)" fill="#5c2581" stroke="#5c2581" stroke-linejoin="round" stroke-width="5" opacity="0.428" style="mix-blend-mode: multiply;isolation: isolate"/>
            </g>
          </g>
        </g>
      </g>
      <path id="Subtraction_6" data-name="Subtraction 6" d="M606.5,1H0V0H606.5V1Z" transform="translate(260 127)" fill="#c536f2" stroke="#c536f2" stroke-linejoin="round" stroke-width="5"/>
      <path id="Subtraction_5" data-name="Subtraction 5" d="M608.5,0H0V1.5H608.5V0Z" transform="translate(258.5 128)" fill="#c536f2" stroke="#c536f2" stroke-width="2"/>
    </g>
    <g id="Circuito4" transform="matrix(-0.719, -0.695, 0.695, -0.719, 793.856, 954.536)">
      <path id="Path_36" data-name="Path 36" d="M-1266.445,757.7l66.147-64.428h57.03l19.866-19.509" transform="translate(1270.174 -669.774)" fill="none" stroke="#6ef0fc" stroke-width="2"/>
      <g id="Ellipse_23" data-name="Ellipse 23" transform="translate(143)" fill="#6ef0fc" stroke="#6ef0fc" stroke-width="2">
        <circle cx="4" cy="4" r="4" stroke="none"/>
        <circle cx="4" cy="4" r="3" fill="none"/>
      </g>
      <g id="Ellipse_24" data-name="Ellipse 24" transform="translate(0 84)" fill="#6ef0fc" stroke="#6ef0fc" stroke-width="2">
        <circle cx="4" cy="4" r="4" stroke="none"/>
        <circle cx="4" cy="4" r="3" fill="none"/>
      </g>
    </g>
    <g id="circuito8" transform="translate(357 851)">
      <path id="Path_40" data-name="Path 40" d="M-1281.532,895.725H-1343.4l-10.488,10.109" transform="translate(1358.967 -892.759)" fill="none" stroke="#6ef0fc" stroke-width="2"/>
      <g id="Ellipse_12" data-name="Ellipse 12" transform="translate(77)" fill="#6ef0fc" stroke="#6ef0fc" stroke-width="1">
        <circle cx="3.5" cy="3.5" r="3.5" stroke="none"/>
        <circle cx="3.5" cy="3.5" r="3" fill="none"/>
      </g>
      <g id="Ellipse_32" data-name="Ellipse 32" transform="translate(0 11)" fill="#6ef0fc" stroke="#6ef0fc" stroke-width="1">
        <circle cx="3.5" cy="3.5" r="3.5" stroke="none"/>
        <circle cx="3.5" cy="3.5" r="3" fill="none"/>
      </g>
    </g>
    <g id="circuito8-2" data-name="circuito8" transform="translate(483 869) rotate(180)">
      <path id="Path_40-2" data-name="Path 40" d="M-1281.532,895.725H-1343.4l-10.488,10.109" transform="translate(1358.967 -892.759)" fill="none" stroke="#6ef0fc" stroke-width="2"/>
      <g id="Ellipse_12-2" data-name="Ellipse 12" transform="translate(77)" fill="#6ef0fc" stroke="#6ef0fc" stroke-width="1">
        <circle cx="3.5" cy="3.5" r="3.5" stroke="none"/>
        <circle cx="3.5" cy="3.5" r="3" fill="none"/>
      </g>
      <g id="Ellipse_32-2" data-name="Ellipse 32" transform="translate(0 11)" fill="#6ef0fc" stroke="#6ef0fc" stroke-width="1">
        <circle cx="3.5" cy="3.5" r="3.5" stroke="none"/>
        <circle cx="3.5" cy="3.5" r="3" fill="none"/>
      </g>
    </g>
    <g id="saqures" transform="translate(517 839)">
      <path id="Path_76" data-name="Path 76" d="M4,0H48a4,4,0,0,1,4,4V48a4,4,0,0,1-4,4H4a4,4,0,0,1-4-4V4A4,4,0,0,1,4,0Z" transform="translate(3 3)" fill="#310c44" stroke="#310c44" stroke-width="1"/>
      <rect id="Rectangle_95" data-name="Rectangle 95" width="52" height="52" rx="4" fill="#4a1b69" stroke="#4a1b69" stroke-linejoin="round" stroke-width="1"/>
      <rect id="Rectangle_113" data-name="Rectangle 113" width="52" height="52" rx="4" fill="#381251" stroke="#381251" stroke-linejoin="round" stroke-width="1"/>
    </g>
  </g>
</svg>
